# xmcd
#
# Track frame offsets:
#	183
#	18633
#	38183
#	52495
#	71068
#	89450
#	109993
#	124803
#	139380
#	155735
#	171580
#	188945
#	200690
#	215488
#
# Disc length: 3133 seconds
#
# Revision: 1
# Processed by: cddbd v1.4PL0 Copyright (c) Steve Scherf et al.
# Submitted via: audiograbber 1.81.02
#
DISCID=ea0c3b0e
DTITLE=Captain Gumbo - Chank-a-chank
DYEAR=1994
DGENRE=Country
TTITLE0=Chicken Gumbo
TTITLE1=Do Re Mi
TTITLE2=Diggy Liggy Ly
TTITLE3=Suger Bee
TTITLE4=Travailler
TTITLE5=Walkin' to New Orleans
TTITLE6=Ne m'a quitter
TTITLE7=Broken Heart Two Step
TTITLE8=Falmmes d'Enfer
TTITLE9=Sad Song
TTITLE10=I'm Walkin'
TTITLE11=Midland Two Step
TTITLE12=Bye Bye
TTITLE13=Wooly Booly
EXTD=
EXTT0=
EXTT1=
EXTT2=
EXTT3=
EXTT4=
EXTT5=
EXTT6=
EXTT7=
EXTT8=
EXTT9=
EXTT10=
EXTT11=
EXTT12=
EXTT13=
PLAYORDER=
